Coordinates
version=1
nRows=6
nColumns=34
inDegrees=yes

Units are S.I. units (second, meters, Newtons, ...)
If the header above contains a line with 'inDegrees', this indicates whether rotational values are in degrees (yes) or radians (no).

endheader
time	pelvis_tilt	pelvis_list	pelvis_rotation	pelvis_tx	pelvis_ty	pelvis_tz	hip_flexion_r	hip_adduction_r	hip_rotation_r	knee_angle_r	ankle_angle_r	subtalar_angle_r	mtp_angle_r	hip_flexion_l	hip_adduction_l	hip_rotation_l	knee_angle_l	ankle_angle_l	subtalar_angle_l	mtp_angle_l	lumbar_extension	lumbar_bending	lumbar_rotation	arm_flex_r	arm_add_r	arm_rot_r	elbow_flex_r	pro_sup_r	arm_flex_l	arm_add_l	arm_rot_l	elbow_flex_l	pro_sup_l
      5.03333330	     -6.95032986	     -0.86757150	      5.78659575	      2.02521277	      0.88640070	     -0.08521902	      6.97660439	     -9.30022802	     -5.92130844	     33.12575123	    -20.64703073	    -35.00000000	      0.00000000	     -6.68274288	      0.33141139	      8.03890983	      4.30285331	      0.58038165	     -5.57432093	      0.00000000	     -5.68199412	     -0.12648997	     -1.22318254	    -21.92336580	     -9.71497857	    -44.61870176	     25.68366209	     63.98241033	    -12.68329732	     -9.09876838	      0.60778252	     13.29997551	     76.67355899
      5.05000000	     -6.84527191	     -1.22856982	      5.92975556	      2.03096339	      0.88800635	     -0.08606980	     10.97617577	     -8.81031633	     -5.41084236	     39.41955725	    -19.99585251	    -35.00000000	      0.00000000	     -7.56748058	     -0.07358484	      8.74036986	      3.33086916	      0.05257165	     -4.68652515	      0.00000000	     -6.42512565	      0.10478162	     -1.96891777	    -23.10704541	    -10.43159400	    -49.85579851	     29.01220062	     62.35863255	    -15.10468219	     -9.89968669	     -0.99928388	     11.83266536	     76.35697493
      5.06666670	     -6.93177833	     -1.62487239	      6.19820027	      2.03775040	      0.88939587	     -0.08669645	     15.05195738	     -7.85260625	     -4.97464755	     44.88804463	    -18.65102900	    -35.00000000	      0.00000000	     -8.33272303	     -0.67630145	      9.52674022	      2.13833079	     -0.47480698	     -3.61411209	      0.00000000	     -6.83673716	      0.18102286	     -3.39775516	    -23.54272422	    -11.51134895	    -51.71303727	     31.16833679	     61.80301426	    -18.01533717	    -10.73128393	     -1.41413929	     10.74724907	     76.15663339
      5.08333330	     -7.03982602	     -2.11388390	      6.55138263	      2.04556877	      0.89078384	     -0.08827220	     18.83411848	     -6.50578111	     -4.84679206	     49.10503625	    -15.51261313	    -32.75617861	      0.00000000	     -9.09388138	     -1.43885231	      9.95070986	      1.07358345	     -1.09552028	     -2.18675103	      0.00000000	     -7.19780405	      0.38893942	     -4.83370976	    -23.58398919	    -12.39718303	    -53.15207789	     33.20496671	     61.32080809	    -20.95820572	    -11.35398509	     -1.44161928	     10.48401613	     75.94004112
      5.10000000	     -7.18801519	     -2.68105680	      6.93115495	      2.05387834	      0.89131710	     -0.09017013	     22.31408477	     -5.07399583	     -5.41215133	     51.99965810	    -10.79585152	    -27.72640226	      0.00000000	     -9.83565924	     -2.19869150	      9.64944052	      0.30056926	     -1.64366482	     -0.53717623	      0.00000000	     -7.46939738	      0.70667214	     -6.43963962	    -23.19605260	    -13.14014764	    -53.99060105	     35.04462111	     60.90787174	    -24.00747234	    -11.55290041	     -0.90571723	     10.95072907	     75.81073414
      5.11666670	     -7.45025329	     -3.33203272	      7.47328016	      2.06194015	      0.89109170	     -0.09122199	     25.50038267	     -3.62523384	     -6.58145578	     53.38439521	     -6.32044144	    -22.11479545	      0.00000000	    -10.32089737	     -2.96269795	      8.87547864	      0.00000000	     -1.73503798	      1.06251997	      0.00000000	     -7.57570654	      1.14106438	     -8.19129533	    -22.51990785	    -13.75624834	    -54.63680814	     36.91600764	     60.48802985	    -26.99407677	    -11.55189499	      0.17903551	     12.14823244	     75.78279190
